#!OML:ASF F:\VICON\USERDATA\INSTALL\rory3\rory3.ASF
:FULLY-SPECIFIED
:DEGREES
127
root 13.9383 17.7911 -8.97309 5.70807 -45.4841 -3.6406
lowerback 11.0904 1.28474 3.74142
upperback 0.518939 2.20474 0.788591
thorax -5.56915 0.989672 -1.62399
lowerneck -19.051 -4.93806 -11.267
upperneck 24.4376 -6.1026 9.04497
head 11.8042 -2.72489 4.29923
rclavicle 4.69629e-014 -1.43125e-014
rhumerus -34.1606 -12.0463 -81.5532
rradius 27.6563
rwrist 13.2004
rhand -10.3002 9.86601
rfingers 7.12502
rthumb 15.6946 -19.5175
lclavicle 4.69629e-014 -1.43125e-014
lhumerus -38.783 6.76555 81.8255
lradius 29.0448
lwrist -10.5139
lhand -12.4468 27.0607
lfingers 7.12502
lthumb 13.6264 56.5947
rfemur 4.44318 1.67853 29.0574
rtibia 15.5838
rfoot -18.2295 2.48923
rtoes 8.98242
lfemur -30.4393 -3.52721 -16.8929
ltibia 18.8355
lfoot -13.6321 2.13408
ltoes -22.2456
128
root 13.8826 17.7822 -8.91432 5.65767 -45.5821 -3.60391
lowerback 11.0276 1.32346 3.75071
upperback 0.611937 2.24735 0.729207
thorax -5.4308 1.01352 -1.69419
lowerneck -19.1224 -4.93857 -11.2289
upperneck 24.3852 -6.12385 9.11864
head 11.802 -2.71924 4.31565
rclavicle 1.59773e-014 8.34896e-015
rhumerus -34.0703 -12.25 -81.608
rradius 27.712
rwrist 13.2721
rhand -10.1398 9.89163
rfingers 7.12502
rthumb 15.849 -19.4797
lclavicle 1.59773e-014 8.34896e-015
lhumerus -38.7452 6.57767 81.853
lradius 28.9457
lwrist -10.5036
lhand -12.3648 26.8075
lfingers 7.12502
lthumb 13.7054 56.3362
rfemur 5.00381 1.79997 29.025
rtibia 15.1267
rfoot -18.1779 2.54073
rtoes 9.36348
lfemur -30.5032 -3.47533 -16.9165
ltibia 18.4281
lfoot -13.5344 2.3055
ltoes -21.8155
129
root 13.8267 17.7771 -8.8618 5.64491 -45.6347 -3.48153
lowerback 10.9246 1.33751 3.67396
upperback 0.641838 2.24686 0.65425
thorax -5.34142 1.01678 -1.72564
lowerneck -19.1639 -4.935 -11.1748
upperneck 24.3909 -6.15206 9.18695
head 11.8162 -2.71755 4.32797
rclavicle 7.67309e-014 8.94531e-015
rhumerus -34.0012 -12.4186 -81.6804
rradius 27.7009
rwrist 13.4057
rhand -10.1187 9.97896
rfingers 7.12502
rthumb 15.8693 -19.3907
lclavicle 7.67309e-014 8.94531e-015
lhumerus -38.7835 6.81963 81.6664
lradius 28.8323
lwrist -10.9584
lhand -12.4647 26.6921
lfingers 7.12502
lthumb 13.6092 56.2273
rfemur 5.43671 1.93517 28.9661
rtibia 14.6424
rfoot -18.0691 2.42876
rtoes 8.75683
lfemur -30.7009 -3.47621 -16.9845
ltibia 18.1116
lfoot -13.39 2.53303
ltoes -21.9918
130
root 13.7716 17.7683 -8.80783 5.76317 -45.6784 -3.54201
lowerback 10.9159 1.32927 3.6354
upperback 0.609237 2.23417 0.693005
thorax -5.3746 1.01092 -1.66189
lowerneck -19.224 -4.91481 -11.1533
upperneck 24.5323 -6.11792 9.12772
head 11.8755 -2.70749 4.31093
rclavicle 8.51047e-014 -8.54774e-015
rhumerus -34.0124 -12.3233 -81.7191
rradius 27.7387
rwrist 13.4279
rhand -10.3768 9.89076
rfingers 7.12502
rthumb 15.6207 -19.4985
lclavicle 8.51047e-014 -8.54774e-015
lhumerus -38.9075 7.0481 81.5898
lradius 28.7579
lwrist -11.189
lhand -12.1415 27.1005
lfingers 7.12502
lthumb 13.9206 56.6145
rfemur 5.87698 2.05406 29.0388
rtibia 14.1496
rfoot -17.9746 2.34825
rtoes 8.05003
lfemur -30.8897 -3.38075 -16.9437
ltibia 17.8629
lfoot -13.2666 2.58264
ltoes -21.4267
131
root 13.7151 17.7596 -8.74669 5.94266 -45.8473 -3.74624
lowerback 10.9503 1.41235 3.5979
upperback 0.554936 2.35201 0.853887
thorax -5.45331 1.06922 -1.49227
lowerneck -19.1281 -4.90235 -11.2329
upperneck 24.6022 -6.03906 8.95086
head 11.8705 -2.7045 4.27203
rclavicle 8.07066e-014 -7.95139e-015
rhumerus -34.0831 -12.3264 -81.5
rradius 27.7173
rwrist 13.389
rhand -10.5834 9.67845
rfingers 7.12502
rthumb 15.4218 -19.7263
lclavicle 8.07066e-014 -7.95139e-015
lhumerus -39.0721 7.0345 81.7849
lradius 28.6771
lwrist -11.0758
lhand -11.7731 27.1409
lfingers 7.12502
lthumb 14.2757 56.6302
rfemur 6.40113 2.1386 29.1538
rtibia 13.6489
rfoot -17.8896 2.45673
rtoes 7.8105
lfemur -30.9826 -3.20883 -16.8033
ltibia 17.6793
lfoot -13.2252 2.60937
ltoes -21.1887
132
root 13.658 17.7518 -8.68683 6.07155 -46.0225 -3.87537
lowerback 10.9057 1.58863 3.54395
upperback 0.600164 2.58159 0.970784
thorax -5.37711 1.18643 -1.37165
lowerneck -19.0396 -5.02023 -11.4571
upperneck 24.5244 -6.15776 9.01525
head 11.8487 -2.77189 4.31349
rclavicle -3.54334e-014 3.27995e-014
rhumerus -34.0295 -12.5395 -81.2267
rradius 27.7402
rwrist 13.287
rhand -10.5648 9.50389
rfingers 7.12502
rthumb 15.4397 -19.8995
lclavicle -3.54334e-014 3.27995e-014
lhumerus -38.9827 6.84895 82.0515
lradius 28.5738
lwrist -11.1102
lhand -11.9756 27.0452
lfingers 7.12502
lthumb 14.0805 56.5482
rfemur 6.90598 2.23964 29.2114
rtibia 13.1688
rfoot -17.7104 2.61131
rtoes 8.22617
lfemur -31.0531 -3.35743 -16.5901
ltibia 17.5101
lfoot -13.2159 2.93282
ltoes -23.0162
133
root 13.6016 17.7428 -8.6265 6.22164 -46.1661 -4.00588
lowerback 10.9236 1.62425 3.55968
upperback 0.56869 2.63451 1.00241
thorax -5.41862 1.21124 -1.35656
lowerneck -18.924 -4.9866 -11.4616
upperneck 24.5013 -6.13161 9.05151
head 11.8149 -2.75924 4.33274
rclavicle -1.20762e-014 -1.35174e-014
rhumerus -34.0871 -12.3201 -81.314
rradius 27.8228
rwrist 13.1461
rhand -10.6891 9.55675
rfingers 7.12502
rthumb 15.32 -19.8558
lclavicle -1.20762e-014 -1.35174e-014
lhumerus -39.0265 7.18669 81.8474
lradius 28.4532
lwrist -11.3607
lhand -11.9776 26.9468
lfingers 7.12502
lthumb 14.0786 56.4499
rfemur 7.36734 2.31141 29.2754
rtibia 12.696
rfoot -17.5073 2.72223
rtoes 8.35137
lfemur -31.1447 -3.60155 -16.3009
ltibia 17.3362
lfoot -13.163 2.88721
ltoes -22.0593
134
root 13.5422 17.7324 -8.56235 6.27594 -46.3687 -4.01784
lowerback 10.9705 1.59701 3.64137
upperback 0.504302 2.60597 0.866754
thorax -5.50402 1.19151 -1.54294
lowerneck -18.9493 -4.86835 -11.3501
upperneck 24.6372 -6.04341 9.17333
head 11.8608 -2.69614 4.37946
rclavicle -5.14604e-014 8.94531e-015
rhumerus -34.1393 -12.0807 -81.6658
rradius 27.8192
rwrist 13.0364
rhand -10.6636 9.74962
rfingers 7.12502
rthumb 15.3446 -19.661
lclavicle -5.14604e-014 8.94531e-015
lhumerus -39.2025 7.42619 81.433
lradius 28.4625
lwrist -11.3888
lhand -11.8221 26.9159
lfingers 7.12502
lthumb 14.2284 56.4086
rfemur 7.86704 2.38709 29.2366
rtibia 12.2229
rfoot -17.4073 2.81493
rtoes 7.92014
lfemur -31.1707 -3.91812 -16.0596
ltibia 17.1653
lfoot -13.1844 2.82342
ltoes -20.3011
135
root 13.4833 17.7227 -8.49519 6.30189 -46.5367 -4.10474
lowerback 10.9959 1.63771 3.81568
upperback 0.55507 2.6741 0.750156
thorax -5.44769 1.22091 -1.77261
lowerneck -19.0534 -4.90064 -11.3402
upperneck 24.7152 -6.14587 9.37031
head 11.9312 -2.7155 4.4387
rclavicle 4.43041e-014 2.98177e-015
rhumerus -34.0435 -12.3809 -81.8082
rradius 27.7374
rwrist 13.1581
rhand -10.3201 9.90676
rfingers 7.12502
rthumb 15.6754 -19.4783
lclavicle 4.43041e-014 2.98177e-015
lhumerus -39.2081 7.39597 81.2513
lradius 28.466
lwrist -11.3379
lhand -12.1059 26.8675
lfingers 7.12502
lthumb 13.955 56.3791
rfemur 8.45726 2.37697 29.2567
rtibia 11.7648
rfoot -17.299 2.92879
rtoes 8.24216
lfemur -31.075 -4.11288 -15.8586
ltibia 17.0059
lfoot -13.2017 2.87749
ltoes -20.9048
136
root 13.4241 17.7147 -8.42796 6.39747 -46.6567 -4.24653
lowerback 10.9829 1.68961 3.92794
upperback 0.632202 2.75284 0.752601
thorax -5.3496 1.25965 -1.84237
lowerneck -19.104 -4.98404 -11.3622
upperneck 24.6135 -6.23442 9.3422
head 11.9133 -2.7577 4.41319
rclavicle 2.63638e-014 -4.17448e-015
rhumerus -33.9352 -12.7075 -81.7521
rradius 27.6827
rwrist 13.4452
rhand -10.1643 10.131
rfingers 7.12502
rthumb 15.8254 -19.2422
lclavicle 2.63638e-014 -4.17448e-015
lhumerus -39.152 7.55178 81.1929
lradius 28.4886
lwrist -11.3364
lhand -12.5748 26.8766
lfingers 7.12502
lthumb 13.503 56.4188
rfemur 9.01087 2.45745 29.3444
rtibia 11.3462
rfoot -17.0893 2.93972
rtoes 8.2852
lfemur -31.004 -4.30534 -15.615
ltibia 16.8536
lfoot -13.1955 2.77709
ltoes -21.2009
137
root 13.3635 17.7078 -8.36192 6.50587 -46.8284 -4.29661
lowerback 10.9102 1.739 3.94178
upperback 0.663763 2.81388 0.727181
thorax -5.27014 1.29132 -1.88204
lowerneck -19.096 -4.99556 -11.336
upperneck 24.486 -6.23066 9.28101
head 11.8589 -2.7595 4.38183
rclavicle -6.16232e-015 1.33186e-014
rhumerus -33.8393 -12.8049 -81.7999
rradius 27.6454
rwrist 13.6664
rhand -10.2566 10.3175
rfingers 7.12502
rthumb 15.7366 -19.0627
lclavicle -6.16232e-015 1.33186e-014
lhumerus -39.0964 7.4776 81.1701
lradius 28.5401
lwrist -11.1515
lhand -12.566 27.0968
lfingers 7.12502
lthumb 13.5115 56.6385
rfemur 9.47123 2.62007 29.3627
rtibia 10.9697
rfoot -16.9198 2.86817
rtoes 7.5349
lfemur -30.9902 -4.50486 -15.4284
ltibia 16.7221
lfoot -13.2056 2.72621
ltoes -21.1582
138
root 13.3014 17.7009 -8.29566 6.59358 -47.0383 -4.31094
lowerback 11.0216 1.76552 3.83099
upperback 0.538079 2.84628 0.731015
thorax -5.46862 1.3042 -1.82826
lowerneck -19.0506 -4.92746 -11.3126
upperneck 24.5648 -6.15359 9.28065
head 11.8694 -2.72539 4.3933
rclavicle 3.29237e-014 -9.34288e-015
rhumerus -34 -12.232 -82.05
rradius 27.7901
rwrist 13.3914
rhand -10.4073 9.95066
rfingers 7.12502
rthumb 15.5914 -19.4409
lclavicle 3.29237e-014 -9.34288e-015
lhumerus -39.295 7.36717 81.1571
lradius 28.5491
lwrist -10.8341
lhand -12.5684 27.1953
lfingers 7.12502
lthumb 13.5092 56.7371
rfemur 9.87151 2.62438 29.2933
rtibia 10.7167
rfoot -16.8548 3.04687
rtoes 7.04078
lfemur -30.933 -4.50316 -15.3837
ltibia 16.5599
lfoot -13.0122 2.79801
ltoes -22.6464
139
root 13.2373 17.6923 -8.22611 6.67049 -47.2091 -4.35815
lowerback 10.9683 1.82714 3.92578
upperback 0.589352 2.92905 0.619076
thorax -5.36925 1.34426 -2.0072
lowerneck -19.0953 -4.95931 -11.1611
upperneck 24.4296 -6.23462 9.29234
head 11.831 -2.74317 4.35399
rclavicle 5.26779e-015 7.35503e-015
rhumerus -33.8532 -12.2554 -82.3091
rradius 27.7538
rwrist 13.3288
rhand -10.5571 9.79716
rfingers 7.12502
rthumb 15.4471 -19.6056
lclavicle 5.26779e-015 7.35503e-015
lhumerus -39.1343 7.35236 80.9853
lradius 28.4419
lwrist -11.0189
lhand -12.5613 27.2644
lfingers 7.12502
lthumb 13.516 56.8058
rfemur 10.2379 2.4723 29.2214
rtibia 10.5749
rfoot -16.7106 3.32235
rtoes 6.20696
lfemur -30.7923 -4.26469 -15.4449
ltibia 16.3747
lfoot -12.7205 2.80555
ltoes -24.8119
140
root 13.173 17.6871 -8.15011 6.69657 -47.4419 -4.39663
lowerback 10.8355 1.91981 4.04376
upperback 0.71344 3.05069 0.54098
thorax -5.1464 1.40729 -2.16351
lowerneck -19.0323 -5.00369 -11.1455
upperneck 24.1278 -6.29572 9.33439
head 11.7113 -2.76234 4.34888
rclavicle -2.17918e-014 1.19271e-015
rhumerus -33.6274 -12.5319 -82.3684
rradius 27.6142
rwrist 13.5429
rhand -10.3854 10.1999
rfingers 7.12502
rthumb 15.6125 -19.1901
lclavicle -2.17918e-014 1.19271e-015
lhumerus -38.9401 7.30164 80.9276
lradius 28.4094
lwrist -11.1391
lhand -12.2371 27.2165
lfingers 7.12502
lthumb 13.8285 56.7368
rfemur 10.6555 2.39309 29.1208
rtibia 10.4544
rfoot -16.5777 3.62956
rtoes 7.04837
lfemur -30.558 -4.45794 -15.3143
ltibia 16.2351
lfoot -12.6528 2.96731
ltoes -25.6986
